Coordinates
version=1
nRows=8
nColumns=60
inDegrees=yes

Units are S.I. units (second, meters, Newtons, ...)
If the header above contains a line with 'inDegrees', this indicates whether rotational values are in degrees (yes) or radians (no).

endheader
time	pelvis_tilt	pelvis_list	pelvis_rotation	pelvis_tx	pelvis_ty	pelvis_tz	hip_flexion_r	hip_adduction_r	hip_rotation_r	knee_angle_r_beta	knee_angle_r	ankle_angle_r	subtalar_angle_r	mtp_angle_r	hip_flexion_l	hip_adduction_l	hip_rotation_l	knee_angle_l_beta	knee_angle_l	ankle_angle_l	subtalar_angle_l	mtp_angle_l	L5_S1_Flex_Ext	L5_S1_Lat_Bending	L5_S1_axial_rotation	L4_L5_Flex_Ext	L4_L5_Lat_Bending	L4_L5_axial_rotation	L3_L4_Flex_Ext	L3_L4_Lat_Bending	L3_L4_axial_rotation	L2_L3_Flex_Ext	L2_L3_Lat_Bending	L2_L3_axial_rotation	L1_L2_Flex_Ext	L1_L2_Lat_Bending	L1_L2_axial_rotation	L1_T12_Flex_Ext	L1_T12_Lat_Bending	L1_T12_axial_rotation	Abs_r3	Abs_r2	Abs_r1	Abs_t1	Abs_t2	arm_flex_r	arm_add_r	arm_rot_r	elbow_flex_r	pro_sup_r	wrist_flex_r	wrist_dev_r	arm_flex_l	arm_add_l	arm_rot_l	elbow_flex_l	pro_sup_l	wrist_flex_l	wrist_dev_l
     80.89000000	      0.69082668	     10.14814672	     89.96147003	      0.40072017	      0.94100592	      0.30082498	      1.02303367	     -4.52363977	      1.22708863	      0.26752842	    -15.32824938	      7.56594963	      0.00000000	      0.00000000	      1.11249311	     -6.15511327	     -3.50239567	      0.26353871	    -15.09965600	      9.72394398	      0.00000000	      0.00000000	     -7.81082096	     -0.03329050	     -0.39899809	    -14.50547561	     -0.04427637	     -0.42393547	    -12.83239776	     -0.08094253	     -0.42393547	     -8.92698728	     -0.08094253	     -0.34912332	     -7.25312835	     -0.06788599	     -0.32418594	     -4.46310310	     -0.05156699	     -0.29924856	    -55.79191307	     -0.37658883	     -2.21910765	      0.00000000	      0.00000000	     11.19914348	    -27.43763505	      1.64507438	    102.50794582	     77.03769759	     -4.07944710	     24.39052642	     11.15855931	    -27.36988096	      2.03089211	     98.95360741	     73.74655320	      1.68590089	     18.26543299
     80.90000000	      0.68462711	      9.87472873	     89.94021989	      0.40044307	      0.94067504	      0.30320722	      1.44250712	     -4.55574475	      1.23927452	      0.26571993	    -15.22463052	      7.48860331	      0.00000000	      0.00000000	      1.53232686	     -6.11899473	     -3.48218203	      0.26204440	    -15.01403788	      9.68989092	      0.00000000	      0.00000000	     -7.91741127	     -0.03196862	     -0.40194275	    -14.70342446	     -0.04251827	     -0.42706417	    -13.00751497	     -0.07772851	     -0.42706417	     -9.04880934	     -0.07772851	     -0.35169990	     -7.35210810	     -0.06519042	     -0.32657848	     -4.52400880	     -0.04951940	     -0.30145706	    -56.55327693	     -0.36163546	     -2.23548497	      0.00000000	      0.00000000	     11.44646398	    -27.46830746	      1.70293914	    102.29071178	     77.02841481	     -4.06372695	     24.37435153	     11.38405583	    -27.38866537	      2.12286570	     98.85171980	     73.74240588	      1.71168820	     18.24894886
     80.91000000	      0.65975761	      9.52326732	     89.94157945	      0.40010989	      0.94024829	      0.30571144	      1.98183938	     -4.60809659	      1.31860615	      0.26493547	    -15.17968433	      7.00696490	      0.00000000	      0.00000000	      2.11768403	     -6.05843338	     -3.29398347	      0.26324824	    -15.08301288	      9.42286856	      0.00000000	      0.00000000	     -8.00035882	     -0.03368210	     -0.41417937	    -14.85746636	     -0.04479719	     -0.44006558	    -13.14378950	     -0.08189466	     -0.44006558	     -9.14361009	     -0.08189466	     -0.36240695	     -7.42913320	     -0.06868454	     -0.33652074	     -4.57140503	     -0.05217357	     -0.31063453	    -57.14576298	     -0.38101865	     -2.30354139	      0.00000000	      0.00000000	     11.99272550	    -27.61468782	      2.17629101	    101.63443486	     77.01078032	     -3.97131698	     24.26225354	     11.80284964	    -27.63789678	      2.66719550	     98.49454324	     73.75118291	      1.85601781	     18.16213168
     80.92000000	      0.62411195	      9.10279447	     89.93319300	      0.39977191	      0.93961164	      0.30820837	      2.61521087	     -4.66962507	      1.36447548	      0.26455838	    -15.15807855	      6.76017305	      0.00000000	      0.00000000	      2.78315689	     -5.99060402	     -3.19623466	      0.26448314	    -15.15376764	      9.27243928	      0.00000000	      0.00000000	     -8.07546716	     -0.03489494	     -0.42227080	    -14.99695006	     -0.04641027	     -0.44866272	    -13.26718499	     -0.08484357	     -0.44866272	     -9.22945142	     -0.08484357	     -0.36948695	     -7.49887880	     -0.07115777	     -0.34309502	     -4.61432193	     -0.05405227	     -0.31670310	    -57.68225437	     -0.39473858	     -2.34854350	      0.00000000	      0.00000000	     12.53095676	    -27.72653375	      2.56576194	    101.01921222	     77.00276943	     -3.86380606	     24.07863145	     12.21878756	    -27.76687286	      3.06358149	     98.08658091	     73.77235473	      2.01003806	     18.01803619
     80.93000000	      0.60172799	      8.77437625	     89.89214522	      0.39949288	      0.93903407	      0.31065369	      3.11149686	     -4.71974510	      1.36961926	      0.26286834	    -15.06124658	      6.74211744	      0.00000000	      0.00000000	      3.27195337	     -5.93582973	     -3.19124916	      0.26326353	    -15.08388917	      9.25457204	      0.00000000	      0.00000000	     -8.18596197	     -0.03366148	     -0.41727654	    -15.20214997	     -0.04476976	     -0.44335632	    -13.44871692	     -0.08184451	     -0.44335632	     -9.35573593	     -0.08184451	     -0.36511697	     -7.60148428	     -0.06864248	     -0.33903719	     -4.67745867	     -0.05214163	     -0.31295741	    -58.47150774	     -0.38078536	     -2.32076694	      0.00000000	      0.00000000	     12.94502432	    -27.76962673	      2.57007486	    100.81021519	     77.00105939	     -3.84669043	     24.04592944	     12.56859632	    -27.76196560	      3.11096038	     97.95939273	     73.77479565	      2.03432945	     17.98998546
     80.94000000	      0.55943838	      8.25456632	     89.82395276	      0.39933769	      0.93819514	      0.31332751	      3.96261287	     -4.77138177	      1.57264681	      0.26563021	    -15.21948996	      6.32882698	      0.00000000	      0.00000000	      4.15744336	     -5.87714027	     -3.12544479	      0.26823127	    -15.36851987	      8.84683256	      0.00000000	      0.00000000	     -8.23210212	     -0.04068316	     -0.41443610	    -15.28783684	     -0.05410861	     -0.44033836	    -13.52452057	     -0.09891704	     -0.44033836	     -9.40846951	     -0.09891704	     -0.36263159	     -7.64433003	     -0.08296110	     -0.33672933	     -4.70382315	     -0.06301822	     -0.31082708	    -58.80108222	     -0.46021607	     -2.30496926	      0.00000000	      0.00000000	     13.79942715	    -27.93110854	      3.30148888	     99.74778415	     77.01685083	     -3.67351330	     23.78978309	     13.29089521	    -28.01780866	      3.90290624	     97.13733247	     73.81153720	      2.20124946	     17.78179735
     80.95000000	      0.53999532	      7.90039870	     89.75625654	      0.39921350	      0.93751933	      0.31582049	      4.49995232	     -4.81156827	      1.59002427	      0.26405072	    -15.12899168	      6.32294968	      0.00000000	      0.00000000	      4.67751211	     -5.84650664	     -3.12166911	      0.26711597	    -15.30461777	      8.81425411	      0.00000000	      0.00000000	     -8.34567200	     -0.04147590	     -0.40140997	    -15.49874747	     -0.05516294	     -0.42649809	    -13.71110453	     -0.10084449	     -0.42649809	     -9.53826853	     -0.10084449	     -0.35123372	     -7.74979102	     -0.08457765	     -0.32614560	     -4.76871698	     -0.06424616	     -0.30105748	    -59.61230052	     -0.46918363	     -2.23252182	      0.00000000	      0.00000000	     14.34146661	    -27.94991187	      3.28930253	     99.54152503	     77.01755827	     -3.65120192	     23.74395101	     13.75815629	    -28.00848116	      3.91674992	     96.98405122	     73.81273533	      2.21670512	     17.74214346
     80.96000000	      0.53624892	      7.50680944	     89.62476927	      0.39930699	      0.93686532	      0.31853620	      5.27632622	     -4.77957874	      1.98610283	      0.26904853	    -15.41534504	      5.91140655	      0.00000000	      0.00000000	      5.44185938	     -5.85019401	     -3.08221549	      0.27324505	    -15.65578815	      8.26475972	      0.00000000	      0.00000000	     -8.41616812	     -0.04865592	     -0.37358000	    -15.62966582	     -0.06471238	     -0.39692875	    -13.82692261	     -0.11830201	     -0.39692875	     -9.61883855	     -0.11830201	     -0.32688250	     -7.81525372	     -0.09921916	     -0.30353375	     -4.80899847	     -0.07536802	     -0.28018500	    -60.11584729	     -0.55040552	     -2.07773989	      0.00000000	      0.00000000	     15.36360465	    -28.05143283	      3.94897746	     98.37333364	     77.03734040	     -3.49586157	     23.53722569	     14.69716647	    -28.13905504	      4.63632054	     96.00982604	     73.81717359	      2.29279813	     17.57325933
